<?xml version="1.0" encoding="utf-8"?>
<!-- Generator: Adobe Illustrator 24.0.2, SVG Export Plug-In . SVG Version: 6.00 Build 0)  -->
<svg version="1.1" id="Layer_1" xmlns="http://www.w3.org/2000/svg" xmlns:xlink="http://www.w3.org/1999/xlink" x="0px" y="0px"
	 viewBox="0 0 500 500" style="enable-background:new 0 0 500 500;" xml:space="preserve">
<style type="text/css">
	.st0{fill:#FFDECB;}
	.st1{fill:#FFD373;stroke:#2647A3;stroke-linecap:round;stroke-linejoin:round;}
	.st2{fill:#F2FCFF;stroke:#2647A3;stroke-linecap:round;stroke-linejoin:round;}
	.st3{fill:#81D678;stroke:#2647A3;stroke-linecap:round;stroke-linejoin:round;}
	.st4{fill:#64B05B;stroke:#2647A3;stroke-linecap:round;stroke-linejoin:round;}
	.st5{fill:none;stroke:#2647A3;stroke-linecap:round;stroke-linejoin:round;}
	.st6{fill-rule:evenodd;clip-rule:evenodd;fill:#BADBF7;stroke:#2647A3;stroke-linecap:round;stroke-linejoin:round;}
	.st7{fill:#86B3DB;stroke:#2647A3;stroke-linecap:round;stroke-linejoin:round;}
	.st8{fill:#FFFFFF;stroke:#2647A3;stroke-linecap:round;stroke-linejoin:round;}
	.st9{fill:#BADBF7;stroke:#2647A3;stroke-linecap:round;stroke-linejoin:round;}
	.st10{fill-rule:evenodd;clip-rule:evenodd;fill:#FFFFFF;stroke:#2647A3;stroke-linecap:round;stroke-linejoin:round;}
	.st11{fill-rule:evenodd;clip-rule:evenodd;fill:#2647A3;}
	.st12{fill:#5190F5;stroke:#2647A3;stroke-linecap:round;stroke-linejoin:round;}
	.st13{fill:none;stroke:#2647A3;stroke-linecap:round;stroke-linejoin:round;stroke-dasharray:5,5;}
	.st14{fill:none;stroke:#2647A3;stroke-linecap:round;stroke-linejoin:round;stroke-dasharray:5.02,5.02;}
	.st15{fill:#D4DEE6;stroke:#2647A3;stroke-linecap:round;stroke-linejoin:round;}
	.st16{fill:#E8EFF5;stroke:#2647A3;stroke-linecap:round;stroke-linejoin:round;}
	.st17{fill:#98D3FD;stroke:#2647A3;stroke-linecap:round;stroke-linejoin:round;}
	.st18{fill:#2E7EFB;stroke:#2647A3;stroke-linecap:round;stroke-linejoin:round;}
	.st19{fill:#FFAB73;stroke:#2647A3;stroke-linecap:round;stroke-linejoin:round;}
	.st20{fill:#FF879F;stroke:#2647A3;stroke-linecap:round;stroke-linejoin:round;}
	.st21{fill:#BADBF7;}
	.st22{fill:#FFD373;}
	.st23{fill:#FF879F;}
	.st24{fill:none;stroke:#FF879F;stroke-miterlimit:10;}
	.st25{fill:none;stroke:#A7D678;stroke-linecap:round;stroke-linejoin:round;}
	.st26{fill:none;stroke:#2E7EFB;stroke-linejoin:round;}
	.st27{fill:none;stroke:#2E7EFB;stroke-linecap:round;stroke-linejoin:round;}
	.st28{fill:#2647A3;}
	.st29{font-family:'VarelaRound';}
	.st30{font-size:6px;}
</style>
<title>uploadimg</title>
<g id="BACKGROUND">
	<rect class="st0" width="500" height="500"/>
</g>
<g id="OBJECTS">
	<circle class="st1" cx="412.2" cy="167" r="14.7"/>
	<path class="st1" d="M414.2,145.6c0,1.1-0.9,2-2,2l0,0c-1.1,0-2-0.9-2-2v-5.9c0-1.1,0.9-2,2-2l0,0c1.1,0,2,0.9,2,2V145.6z"/>
	<path class="st1" d="M398.5,150.4c0.8,0.8,0.8,2,0,2.8c0,0,0,0,0,0l0,0c-0.8,0.8-2,0.8-2.8,0c0,0,0,0,0,0l-4.1-4.1
		c-0.8-0.8-0.8-2,0-2.8c0,0,0,0,0,0l0,0c0.8-0.8,2-0.8,2.8,0L398.5,150.4z"/>
	<path class="st1" d="M390.8,165c1.1,0,2,0.9,2,2l0,0c0,1.1-0.9,2-2,2h-5.9c-1.1,0-2-0.9-2-2l0,0c0-1.1,0.9-2,2-2H390.8z"/>
	<path class="st1" d="M395.6,180.7c0.8-0.8,2-0.8,2.8,0c0,0,0,0,0,0l0,0c0.8,0.8,0.8,2,0,2.8c0,0,0,0,0,0l-4.2,4.1
		c-0.8,0.8-2,0.8-2.8,0c0,0,0,0,0,0l0,0c-0.8-0.8-0.8-2,0-2.8c0,0,0,0,0,0L395.6,180.7z"/>
	<path class="st1" d="M410.2,188.4c0-1.1,0.9-2,2-2l0,0c1.1,0,2,0.9,2,2v5.9c0,1.1-0.9,2-2,2l0,0c-1.1,0-2-0.9-2-2V188.4z"/>
	<path class="st1" d="M425.9,183.5c-0.8-0.8-0.8-2,0-2.8c0,0,0,0,0,0l0,0c0.8-0.8,2-0.8,2.8,0c0,0,0,0,0,0l4.2,4.2
		c0.8,0.8,0.8,2,0,2.8l0,0c-0.8,0.8-2,0.8-2.8,0c0,0,0,0,0,0L425.9,183.5z"/>
	<path class="st1" d="M433.6,169c-1.1,0-2-0.9-2-2l0,0c0-1.1,0.9-2,2-2h5.9c1.1,0,2,0.9,2,2l0,0c0,1.1-0.9,2-2,2H433.6z"/>
	<path class="st1" d="M428.8,153.3c-0.8,0.8-2,0.8-2.8,0l0,0c-0.8-0.8-0.8-2,0-2.8l4.1-4.2c0.8-0.8,2-0.8,2.8,0c0,0,0,0,0,0l0,0
		c0.8,0.8,0.8,2,0,2.8c0,0,0,0,0,0L428.8,153.3z"/>
	<path class="st2" d="M105,200c-1.1,0-2.2,0.1-3.3,0.3c-5.7-11.9-20-16.8-31.9-11.1c-7.6,3.7-12.7,11.1-13.4,19.5
		c-0.7-0.1-1.5-0.2-2.2-0.2c-7.2,0-13,5.8-13,13c0,7.2,5.8,13,13,13H105c9.6,0.2,17.5-7.3,17.7-16.9c0.2-9.6-7.3-17.5-16.9-17.7
		C105.6,200,105.3,200,105,200z"/>
	<path class="st2" d="M416.1,172.4c-1.6,0-3.3,0.2-4.9,0.5c-8.4-17.5-29.5-24.8-47-16.4c-11.2,5.4-18.7,16.3-19.8,28.7
		c-1.1-0.2-2.2-0.3-3.3-0.3c-10.6,0.2-19,9-18.8,19.7c0.2,10.3,8.5,18.6,18.8,18.8h74.9c14.1,0.4,25.8-10.7,26.2-24.8
		c0.4-14.1-10.7-25.8-24.8-26.2C417.1,172.4,416.6,172.4,416.1,172.4L416.1,172.4z"/>
	<path class="st3" d="M370.2,261.5c-11.2,29.1,13,48.7,13,48.7l37.5-97.8C420.8,212.4,381.5,232.2,370.2,261.5z"/>
	<path class="st4" d="M425.4,282.7c-11.2,29.1-42.2,27.5-42.2,27.5l37.5-97.8C420.7,212.4,436.7,253.4,425.4,282.7z"/>
	<path class="st3" d="M392.9,303.1C374,316.8,381,338.9,381,338.9l63.7-45.7C444.7,293.2,412,289.4,392.9,303.1z"/>
	<path class="st4" d="M418.8,339.1c-19,13.6-37.7-0.1-37.7-0.1l63.7-45.7C444.7,293.2,437.9,325.4,418.8,339.1z"/>
	<path class="st3" d="M129.8,261.5c11.2,29.1-12.9,48.7-12.9,48.7l-37.5-97.8C79.3,212.4,118.5,232.2,129.8,261.5z"/>
	<path class="st4" d="M74.6,282.7c11.2,29.1,42.2,27.5,42.2,27.5l-37.5-97.8C79.3,212.4,63.3,253.4,74.6,282.7z"/>
	<path class="st3" d="M107.1,303.1c18.9,13.6,11.9,35.8,11.9,35.8l-63.7-45.7C55.3,293.2,88,289.4,107.1,303.1z"/>
	<path class="st4" d="M81.3,339.1c19,13.6,37.7-0.1,37.7-0.1l-63.7-45.7C55.3,293.2,62.2,325.4,81.3,339.1z"/>
	<line class="st5" x1="28.3" y1="345.1" x2="471.7" y2="345.1"/>
	<path class="st6" d="M440.4,368.2l-41.8-8.8c-7.1-2.4-14.9-4.2-17.9-4.2H119.3c-3,0-10.9,1.8-17.9,4.2l-41.8,8.8v7.3h0.1
		c0.2,0.2,0.6,0.3,1.3,0.3h378c0.8,0,1.2-0.1,1.3-0.3h0.1L440.4,368.2z"/>
	<path class="st7" d="M215.8,350h68.5c1.7,0,3,1.3,3,3v16c0,1.7-1.3,3-3,3h-68.5c-1.7,0-3-1.3-3-3v-16
		C212.8,351.3,214.1,350,215.8,350z"/>
	<path class="st8" d="M118.3,188.2h261.4c3.1,0,5.6,2.5,5.6,5.6v153.8c0,3.1-2.5,5.6-5.6,5.6H118.3c-3.1,0-5.6-2.5-5.6-5.6V193.7
		C112.8,190.7,115.2,188.2,118.3,188.2z"/>
	<rect x="118.4" y="194.3" class="st9" width="261.2" height="146.3"/>
	<path class="st7" d="M139.4,345.1H166c1.7,0,3,1.3,3,3v4.3c0,1.7-1.3,3-3,3h-26.6c-1.7,0-3-1.3-3-3v-4.3
		C136.4,346.4,137.7,345.1,139.4,345.1z"/>
	<path class="st7" d="M332,345.1h26.6c1.7,0,3,1.3,3,3v4.3c0,1.7-1.3,3-3,3H332c-1.7,0-3-1.3-3-3v-4.3
		C329,346.4,330.3,345.1,332,345.1z"/>
	<path class="st10" d="M425.8,361.5c11.1,3.7,17.6,7.2,13.2,7.2H61c-4.4,0,2.1-3.4,13.2-7.2l27.2-9.2c7.1-2.4,14.9-4.2,17.9-4.2
		h261.4c3,0,10.9,1.8,17.9,4.2L425.8,361.5z"/>
	<path class="st11" d="M382,357.8c0.5,0.2-0.7,0.4-2.7,0.4h-9.2c-1.5,0.1-3-0.1-4.5-0.4l-1.9-0.8c-0.4-0.2,0.8-0.4,2.8-0.4h8.9
		c1.5,0,3,0.1,4.5,0.4L382,357.8z"/>
	<path class="st11" d="M362.4,357.8c0.4,0.2-0.9,0.4-2.9,0.4h-9.4c-1.5,0.1-2.9-0.1-4.3-0.4l-1.5-0.8c-0.4-0.2,1-0.4,2.9-0.4h9.1
		c1.5-0.1,2.9,0.1,4.3,0.4L362.4,357.8z"/>
	<path class="st11" d="M342.5,357.8c0.4,0.2-1,0.4-3,0.4h-7.4c-1.4,0.1-2.8-0.1-4.2-0.4l-1.3-0.8c-0.3-0.2,1.1-0.4,3-0.4h7.2
		c1.4,0,2.8,0.1,4.2,0.4L342.5,357.8z"/>
	<path class="st11" d="M324.6,357.8c0.3,0.2-1.1,0.4-3.1,0.4h-8.3c-1.4,0.1-2.7,0-4.1-0.4l-1-0.8c-0.2-0.2,1.2-0.4,3.2-0.4h8
		c1.4-0.1,2.7,0.1,4.1,0.4L324.6,357.8z"/>
	<path class="st11" d="M305.9,357.8c0.2,0.2-1.3,0.4-3.3,0.4H201.1c-2,0-3.5-0.2-3.3-0.4l0.8-0.8c1.3-0.3,2.6-0.4,3.9-0.4h98.5
		c1.3-0.1,2.6,0.1,3.9,0.4L305.9,357.8z"/>
	<path class="st11" d="M194.6,357.8c-1.3,0.3-2.7,0.4-4.1,0.4h-8.5c-2,0-3.4-0.2-3.2-0.4l1.1-0.8c1.3-0.3,2.7-0.4,4-0.4h8.3
		c2,0,3.4,0.2,3.2,0.4L194.6,357.8z"/>
	<path class="st11" d="M175.7,357.8c-1.4,0.3-2.8,0.4-4.2,0.4h-8.6c-2,0-3.4-0.2-3-0.4l1.4-0.8c1.4-0.3,2.8-0.4,4.2-0.4h8.4
		c2,0,3.3,0.2,3.1,0.4L175.7,357.8z"/>
	<path class="st11" d="M156.6,357.8c-1.4,0.3-2.9,0.4-4.3,0.4H144c-2,0-3.3-0.2-2.9-0.4l1.8-0.8c1.4-0.3,2.9-0.4,4.3-0.4h8
		c2,0,3.3,0.2,2.9,0.4L156.6,357.8z"/>
	<path class="st11" d="M137.9,357.8c-1.5,0.3-3,0.4-4.5,0.4h-9.4c-2,0-3.3-0.2-2.8-0.4l2.1-0.8c1.5-0.3,3-0.4,4.4-0.4h9.1
		c2,0,3.2,0.2,2.8,0.4L137.9,357.8z"/>
	<path class="st11" d="M390.6,354.9c1.5,0,2.9,0.1,4.4,0.3l2.3,0.8c0.5,0.2-0.6,0.3-2.5,0.3h-9.9c-1.5,0-3-0.1-4.4-0.3l-2-0.8
		c-0.5-0.2,0.7-0.3,2.6-0.3H390.6z"/>
	<path class="st11" d="M377.4,356c0.5,0.2-0.7,0.3-2.7,0.3h-8.9c-1.4,0-2.9-0.1-4.3-0.3l-1.8-0.8c-0.4-0.2,0.8-0.3,2.7-0.3h8.6
		c1.4-0.1,2.9,0.1,4.3,0.3L377.4,356z"/>
	<path class="st11" d="M358.4,356c0.4,0.2-0.9,0.3-2.8,0.3h-26.5c-1.3,0.1-2.7-0.1-4-0.3l-1.2-0.8c-0.3-0.2,1.1-0.3,3-0.3h25.7
		c1.4-0.1,2.8,0.1,4.1,0.3L358.4,356z"/>
	<path class="st11" d="M322,356c0.3,0.2-1.1,0.3-3,0.3h-8c-1.3,0.1-2.7,0-4-0.3l-0.9-0.8c-0.2-0.2,1.2-0.3,3.1-0.3h7.8
		c1.3-0.1,2.6,0,3.9,0.3L322,356z"/>
	<path class="st11" d="M304,356c0.2,0.2-1.2,0.3-3.2,0.3h-9c-1.3,0.1-2.6,0-3.8-0.3l-0.6-0.8c-0.1-0.2,1.3-0.3,3.2-0.3h8.8
		c1.3-0.1,2.6,0,3.8,0.3L304,356z"/>
	<path class="st11" d="M284.9,356c0.1,0.2-1.4,0.3-3.3,0.3h-7c-1.2,0.1-2.5,0-3.7-0.3l-0.3-0.8c-0.1-0.2,1.4-0.3,3.3-0.3h6.8
		c1.2-0.1,2.5,0,3.7,0.3L284.9,356z"/>
	<path class="st11" d="M267.8,356c0.1,0.2-1.5,0.3-3.4,0.3H256c-2,0-3.6-0.1-3.6-0.3v-0.8c0-0.2,1.5-0.3,3.4-0.3h8.1
		c1.9,0,3.5,0.1,3.5,0.3L267.8,356z"/>
	<path class="st11" d="M249.4,356c0,0.2-1.6,0.3-3.6,0.3h-8c-1.9,0-3.5-0.1-3.4-0.3l0.3-0.8c0.1-0.2,1.6-0.3,3.5-0.3h7.8
		c1.9,0,3.4,0.1,3.4,0.3L249.4,356z"/>
	<path class="st11" d="M231.3,356c-1.2,0.3-2.4,0.4-3.7,0.3h-9c-1.9,0-3.4-0.1-3.3-0.3l0.5-0.8c1.2-0.3,2.4-0.4,3.7-0.3h8.8
		c1.9,0,3.4,0.1,3.3,0.3L231.3,356z"/>
	<path class="st11" d="M212.2,356c-1.2,0.3-2.5,0.4-3.8,0.3h-8.2c-1.9,0-3.4-0.1-3.2-0.3l0.8-0.8c1.2-0.3,2.5-0.4,3.8-0.3h8
		c1.9,0,3.3,0.1,3.2,0.3L212.2,356z"/>
	<path class="st11" d="M194,356c-1.3,0.3-2.6,0.4-3.9,0.3h-8.3c-1.9,0-3.3-0.1-3.1-0.3l1.1-0.8c1.3-0.3,2.6-0.4,3.9-0.3h8.1
		c1.9,0,3.3,0.1,3.1,0.3L194,356z"/>
	<path class="st11" d="M175.5,356c-1.3,0.3-2.7,0.4-4,0.3h-8c-1.9,0-3.3-0.1-2.9-0.3l1.4-0.8c1.3-0.3,2.7-0.4,4-0.3h7.8
		c1.9,0,3.2,0.1,3,0.3L175.5,356z"/>
	<path class="st11" d="M157.5,356c-1.4,0.3-2.8,0.4-4.2,0.3h-9c-1.9,0-3.2-0.1-2.8-0.3l1.7-0.8c1.4-0.3,2.8-0.4,4.1-0.3h8.8
		c1.9,0,3.2,0.1,2.8,0.3L157.5,356z"/>
	<path class="st11" d="M138.4,356c-1.4,0.3-2.9,0.4-4.3,0.3h-28.9c-1.9,0-3.1-0.1-2.6-0.3l2.3-0.8c1.4-0.3,2.9-0.4,4.4-0.3h28
		c1.9,0,3.1,0.1,2.7,0.3L138.4,356z"/>
	<path class="st11" d="M386,353.2c1.4,0,2.8,0.1,4.2,0.3l2,0.7c0.5,0.2-0.6,0.3-2.5,0.3h-9.5c-1.4,0-2.8-0.1-4.3-0.3l-1.8-0.7
		c-0.4-0.2,0.7-0.3,2.5-0.3H386z"/>
	<path class="st11" d="M373,354.3c0.5,0.2-0.7,0.3-2.6,0.3h-33.6c-1.3,0.1-2.7,0-4-0.3l-1.2-0.7c-0.3-0.2,1-0.3,2.8-0.3h32.7
		c1.4,0,2.7,0.1,4.1,0.3L373,354.3z"/>
	<path class="st11" d="M329.9,354.3c0.3,0.2-1,0.3-2.9,0.3h-8c-1.3,0.1-2.6,0-3.9-0.3l-0.9-0.7c-0.2-0.2,1.1-0.3,2.9-0.3h7.8
		c1.3-0.1,2.6,0,3.8,0.3L329.9,354.3z"/>
	<path class="st11" d="M312.1,354.3c0.2,0.2-1.1,0.3-3,0.3h-7.7c-1.3,0.1-2.5,0-3.7-0.3l-0.7-0.7c-0.2-0.2,1.2-0.3,3-0.3h7.5
		c1.2-0.1,2.5,0,3.7,0.3L312.1,354.3z"/>
	<path class="st11" d="M294.6,354.3c0.2,0.2-1.3,0.3-3.1,0.3h-8.7c-1.2,0.1-2.4,0-3.6-0.3l-0.4-0.7c-0.1-0.2,1.3-0.3,3.1-0.3h8.5
		c1.2-0.1,2.4,0,3.6,0.3L294.6,354.3z"/>
	<path class="st11" d="M276.2,354.3c0.1,0.2-1.4,0.3-3.2,0.3h-6.8c-1.2,0.1-2.4,0-3.5-0.3l-0.2-0.7c0-0.2,1.4-0.3,3.3-0.3h6.6
		c1.2-0.1,2.4,0,3.5,0.3L276.2,354.3z"/>
	<path class="st11" d="M259.7,354.3c0,0.2-1.5,0.3-3.4,0.3h-8c-1.9,0-3.4-0.1-3.4-0.3l0.1-0.7c1.1-0.3,2.2-0.4,3.4-0.3h7.8
		c1.1-0.1,2.3,0,3.4,0.3L259.7,354.3z"/>
	<path class="st11" d="M241.9,354.3c-1.1,0.3-2.3,0.4-3.5,0.3h-7.7c-1.9,0-3.4-0.1-3.3-0.3l0.3-0.7c1.1-0.3,2.3-0.4,3.5-0.3h7.5
		c1.8,0,3.3,0.1,3.3,0.3L241.9,354.3z"/>
	<path class="st11" d="M224.5,354.3c-1.2,0.3-2.4,0.4-3.6,0.3h-8.7c-1.9,0-3.3-0.1-3.1-0.3l0.6-0.7c1.2-0.3,2.4-0.4,3.6-0.3h8.5
		c1.8,0,3.3,0.1,3.2,0.3L224.5,354.3z"/>
	<path class="st11" d="M206.1,354.3c-1.2,0.3-2.5,0.4-3.7,0.3h-7.9c-1.9,0-3.2-0.1-3-0.3l0.9-0.7c1.2-0.3,2.5-0.4,3.7-0.3h7.7
		c1.8,0,3.2,0.1,3.1,0.3L206.1,354.3z"/>
	<path class="st11" d="M188.4,354.3c-1.3,0.3-2.5,0.4-3.8,0.3h-8c-1.9,0-3.2-0.1-2.9-0.3l1.1-0.7c1.3-0.3,2.5-0.4,3.8-0.3h7.8
		c1.8,0,3.1,0.1,2.9,0.3L188.4,354.3z"/>
	<path class="st11" d="M170.6,354.3c-1.3,0.3-2.7,0.4-4,0.3H159c-1.9,0-3.1-0.1-2.8-0.3l1.4-0.7c1.3-0.3,2.6-0.4,3.9-0.3h7.5
		c1.8,0,3.1,0.1,2.8,0.3L170.6,354.3z"/>
	<path class="st11" d="M153.2,354.3c-1.3,0.3-2.7,0.4-4,0.3h-8.8c-1.9,0-3.1-0.1-2.7-0.3l1.6-0.7c1.3-0.3,2.7-0.4,4-0.3h8.5
		c1.8,0,3,0.1,2.7,0.3L153.2,354.3z"/>
	<path class="st11" d="M134.7,354.3c-1.4,0.3-2.8,0.4-4.2,0.3h-20.4c-1.9,0-3-0.1-2.5-0.3l2-0.7c1.4-0.2,2.8-0.3,4.2-0.3h19.8
		c1.8,0,3,0.1,2.6,0.3L134.7,354.3z"/>
	<path class="st11" d="M381.5,351.6c1.4,0,2.7,0.1,4,0.3l2.2,0.8c0.5,0.2-0.6,0.3-2.4,0.3H376c-1.4,0-2.7-0.1-4.1-0.3l-1.9-0.8
		c-0.4-0.2,0.7-0.3,2.5-0.3H381.5z"/>
	<path class="st11" d="M369,352.7c0.4,0.2-0.7,0.3-2.5,0.3h-20.9c-1.3,0-2.6-0.1-3.9-0.3l-1.5-0.8c-0.3-0.2,0.9-0.3,2.7-0.3h20.3
		c1.3,0,2.6,0,3.9,0.3L369,352.7z"/>
	<path class="st11" d="M338.8,352.7c0.3,0.2-0.9,0.3-2.8,0.3h-8c-1.3,0.1-2.5,0-3.8-0.3l-1.2-0.8c-0.3-0.2,1-0.3,2.8-0.3h7.9
		c1.3-0.1,2.5,0,3.8,0.3L338.8,352.7z"/>
	<path class="st11" d="M321.3,352.7c0.3,0.2-1,0.3-2.9,0.3h-7.8c-1.2,0.1-2.5,0-3.7-0.3l-0.9-0.8c-0.2-0.2,1.1-0.3,2.9-0.3h7.6
		c1.2-0.1,2.4,0,3.6,0.3L321.3,352.7z"/>
	<path class="st11" d="M304.1,352.7c0.2,0.2-1.1,0.3-3,0.3h-7.5c-1.2,0.1-2.4,0-3.6-0.3l-0.6-0.8c-0.1-0.2,1.2-0.3,3-0.3h7.3
		c1.2-0.1,2.4,0,3.5,0.3L304.1,352.7z"/>
	<path class="st11" d="M287.2,352.7c0.1,0.2-1.3,0.3-3.1,0.3h-8.4c-1.2,0.1-2.3,0-3.4-0.3l-0.4-0.8c-0.1-0.2,1.3-0.3,3.1-0.3h8.2
		c1.2-0.1,2.3,0,3.4,0.3L287.2,352.7z"/>
	<path class="st11" d="M269.4,352.7c0.1,0.2-1.4,0.3-3.2,0.3h-6.5c-1.1,0.1-2.3,0-3.4-0.3l-0.1-0.8c1-0.3,2.1-0.4,3.2-0.3h6.3
		c1.1-0.1,2.2,0,3.3,0.3L269.4,352.7z"/>
	<path class="st11" d="M253.4,352.7c-1.1,0.3-2.2,0.4-3.3,0.3h-7.8c-1.8,0-3.3-0.1-3.2-0.3l0.2-0.8c1.1-0.3,2.2-0.4,3.3-0.3h7.6
		c1.1-0.1,2.2,0,3.2,0.3L253.4,352.7z"/>
	<path class="st11" d="M236.2,352.7c-1.1,0.3-2.3,0.4-3.4,0.3h-7.5c-1.8,0-3.2-0.1-3.1-0.3l0.4-0.8c1.1-0.3,2.2-0.4,3.4-0.3h7.3
		c1.8,0,3.2,0.1,3.1,0.3L236.2,352.7z"/>
	<path class="st11" d="M219.3,352.7c-1.1,0.3-2.3,0.4-3.5,0.3h-8.4c-1.8,0-3.2-0.1-3-0.3l0.7-0.8c1.1-0.3,2.3-0.3,3.5-0.3h8.2
		c1.8,0,3.1,0.1,3,0.3L219.3,352.7z"/>
	<path class="st11" d="M201.5,352.7c-1.2,0.3-2.4,0.4-3.6,0.3h-7.7c-1.8,0-3.1-0.1-2.9-0.3l1-0.8c1.2-0.2,2.4-0.3,3.6-0.3h7.4
		c1.8,0,3.1,0.1,2.9,0.3L201.5,352.7z"/>
	<path class="st11" d="M184.4,352.7c-1.2,0.3-2.5,0.4-3.7,0.3h-7.8c-1.8,0-3.1-0.1-2.8-0.3l1.3-0.8c1.2-0.2,2.5-0.3,3.7-0.3h7.6
		c1.8,0,3,0.1,2.8,0.3L184.4,352.7z"/>
	<path class="st11" d="M167.2,352.7c-1.3,0.3-2.6,0.4-3.8,0.3h-7.5c-1.8,0-3-0.1-2.7-0.3l1.5-0.8c1.3-0.2,2.5-0.3,3.8-0.3h7.3
		c1.8,0,3,0.1,2.7,0.3L167.2,352.7z"/>
	<path class="st11" d="M150.3,352.7c-1.3,0.2-2.6,0.3-3.9,0.3H138c-1.8,0-3-0.1-2.6-0.3l1.8-0.8c1.3-0.2,2.6-0.3,3.9-0.3h8.2
		c1.8,0,3,0.1,2.6,0.3L150.3,352.7z"/>
	<path class="st11" d="M132.5,352.7c-1.3,0.2-2.7,0.3-4,0.3h-13.7c-1.8,0-2.9-0.1-2.4-0.3l2.2-0.8c1.3-0.2,2.7-0.3,4-0.3h13.3
		c1.8,0,2.9,0.1,2.5,0.3L132.5,352.7z"/>
	<path class="st11" d="M132,351.1c-1.3,0.2-2.6,0.3-3.9,0.3h-8.8c-1.8,0-2.8-0.1-2.4-0.3l1.8-0.6c1.3-0.2,2.6-0.3,3.9-0.3h8.6
		c1.7,0,2.8,0.1,2.4,0.3L132,351.1z"/>
	<path class="st11" d="M149.3,351.1c-1.3,0.2-2.5,0.3-3.8,0.3h-8.1c-1.8,0-2.9-0.1-2.5-0.3l1.6-0.6c1.3-0.2,2.5-0.3,3.8-0.3h7.9
		c1.7,0,2.9,0.1,2.5,0.3L149.3,351.1z"/>
	<path class="st11" d="M165.6,351.1c-1.2,0.2-2.5,0.3-3.7,0.3h-7.2c-1.8,0-2.9-0.1-2.6-0.3l1.3-0.6c1.2-0.2,2.5-0.3,3.7-0.3h7
		c1.7,0,2.9,0.1,2.6,0.3L165.6,351.1z"/>
	<path class="st11" d="M182.2,351.1c-1.2,0.2-2.4,0.3-3.6,0.3h-7.5c-1.8,0-3-0.1-2.7-0.3l1.1-0.6c1.2-0.2,2.4-0.3,3.6-0.3h7.3
		c1.7,0,2.9,0.1,2.7,0.3L182.2,351.1z"/>
	<path class="st11" d="M198.7,351.1c-1.2,0.2-2.3,0.3-3.5,0.3h-7.4c-1.8,0-3-0.1-2.8-0.3l0.9-0.6c1.2-0.2,2.3-0.3,3.5-0.3h7.2
		c1.7,0,3,0.1,2.8,0.3L198.7,351.1z"/>
	<path class="st11" d="M216,351.1c-1.1,0.3-2.3,0.4-3.4,0.3h-8.1c-1.8,0-3.1-0.1-2.9-0.3l0.7-0.6c1.1-0.2,2.3-0.3,3.4-0.3h7.9
		c1.7,0,3,0.1,2.9,0.3L216,351.1z"/>
	<path class="st11" d="M232.3,351.1c-1.1,0.3-2.2,0.4-3.3,0.3h-7.2c-1.8,0-3.1-0.1-3-0.3l0.4-0.6c1.1-0.2,2.2-0.3,3.3-0.3h7
		c1-0.1,2,0,3,0.3L232.3,351.1z"/>
	<path class="st11" d="M249,351.1c-1,0.3-2.1,0.4-3.2,0.3h-7.5c-1,0.1-2.1,0-3.1-0.3l0.2-0.6c1.1-0.2,2.1-0.3,3.2-0.3h7.3
		c1-0.1,2.1,0,3.1,0.3L249,351.1z"/>
	<path class="st11" d="M264.4,351.1c-1,0.3-2.1,0.4-3.1,0.3H255c-1.1,0.1-2.2,0-3.2-0.3v-0.6c1-0.3,2.1-0.3,3.1-0.3h6.1
		c1.1-0.1,2.2,0,3.2,0.3L264.4,351.1z"/>
	<path class="st11" d="M281.6,351.1c0.1,0.1-1.3,0.3-3,0.3h-8.1c-1.1,0.1-2.2,0-3.3-0.3l-0.2-0.6c1-0.3,2-0.3,3-0.3h7.9
		c1.1-0.1,2.2,0,3.3,0.3L281.6,351.1z"/>
	<path class="st11" d="M298,351.1c0.2,0.1-1.1,0.3-2.9,0.3h-7.2c-1.1,0.1-2.3,0-3.4-0.3l-0.5-0.6c-0.1-0.1,1.2-0.3,2.9-0.3h7
		c1.1-0.1,2.3,0,3.4,0.3L298,351.1z"/>
	<path class="st11" d="M314.6,351.1c0.2,0.1-1,0.3-2.8,0.3h-7.5c-1.2,0.1-2.4,0-3.5-0.3l-0.7-0.6c-0.2-0.1,1.1-0.3,2.8-0.3h7.3
		c1.2-0.1,2.3,0,3.5,0.3L314.6,351.1z"/>
	<path class="st11" d="M331.5,351.1c0.3,0.1-1,0.3-2.7,0.3H321c-1.2,0.1-2.4,0-3.6-0.3l-0.9-0.6c-0.2-0.1,1-0.3,2.7-0.3h7.6
		c1.2,0,2.4,0,3.6,0.3L331.5,351.1z"/>
	<path class="st11" d="M365.1,351.1c0.4,0.1-0.7,0.3-2.5,0.3H338c-1.2,0-2.5,0-3.7-0.3l-1.2-0.6c-0.3-0.1,0.9-0.3,2.6-0.3h23.9
		c1.3,0,2.5,0,3.8,0.3L365.1,351.1z"/>
	<path class="st11" d="M377.4,350.2c1.3,0,2.6,0.1,3.9,0.3l1.8,0.6c0.4,0.1-0.6,0.3-2.4,0.3h-8.9c-1.3,0-2.6-0.1-3.9-0.3l-1.6-0.6
		c-0.4-0.1,0.7-0.3,2.4-0.3H377.4z"/>
	<path class="st11" d="M348.2,349.6c-0.3-0.2,0.8-0.3,2.5-0.3h6.9c1.2,0,2.5,0,3.7,0.3l0.2,0.1c0.4,0.1-0.7,0.3-2.4,0.3h-7
		c-1.2,0-2.5,0-3.7-0.3L348.2,349.6z"/>
	<path class="st11" d="M331.5,349.6c-0.3-0.2,0.9-0.3,2.6-0.3h7.8c1.2-0.1,2.4,0,3.6,0.3l0.2,0.1c0.3,0.1-0.8,0.3-2.5,0.3h-7.9
		c-1.2,0-2.4,0-3.6-0.3L331.5,349.6z"/>
	<path class="st11" d="M315.2,349.6c-0.2-0.2,1-0.3,2.7-0.3h7.5c1.2-0.1,2.4,0,3.5,0.3l0.2,0.1c0.3,0.1-0.9,0.3-2.6,0.3h-7.6
		c-1.2,0.1-2.3,0-3.5-0.3L315.2,349.6z"/>
	<path class="st11" d="M299.1,349.6c-0.2-0.2,1.1-0.3,2.8-0.3h7.2c1.2-0.1,2.3,0,3.4,0.3l0.1,0.1c0.2,0.1-1,0.3-2.7,0.3h-7.3
		C301.4,350,300.3,350,299.1,349.6L299.1,349.6z"/>
	<path class="st11" d="M283.3,349.6c-0.1-0.2,1.2-0.3,2.9-0.3h6.9c1.1-0.1,2.2,0,3.3,0.3l0.1,0.1c0.1,0.1-1.1,0.3-2.8,0.3h-7
		C285.5,350,284.4,350,283.3,349.6L283.3,349.6z"/>
	<path class="st11" d="M266.6,349.6c0-0.2,1.3-0.3,3-0.3h7.8c1.1-0.1,2.2,0,3.2,0.3l0.1,0.1c0.1,0.1-1.2,0.3-2.9,0.3h-7.9
		C268.8,350.1,267.7,350,266.6,349.6L266.6,349.6z"/>
	<path class="st11" d="M251.7,349.6c1-0.3,2-0.4,3-0.3h6c1.1-0.1,2.1,0,3.1,0.3v0.1c-1,0.3-2,0.3-3,0.3h-6
		C253.8,350.1,252.7,350,251.7,349.6L251.7,349.6z"/>
	<path class="st11" d="M235.6,349.6c1-0.3,2.1-0.4,3.1-0.3h7.2c1-0.1,2,0,3,0.3v0.1c-1,0.3-2.1,0.3-3.1,0.3h-7.3
		C237.5,350.1,236.5,350,235.6,349.6L235.6,349.6z"/>
	<path class="st11" d="M219.8,349.6c1.1-0.3,2.2-0.3,3.2-0.3h6.9c1.7,0,3,0.1,3,0.3v0.1c-1,0.2-2.1,0.3-3.2,0.3h-7
		C221,350,219.7,349.9,219.8,349.6L219.8,349.6z"/>
	<path class="st11" d="M203.1,349.6c1.1-0.2,2.2-0.3,3.3-0.3h7.8c1.7,0,3,0.1,2.9,0.3l-0.1,0.1c-1.1,0.2-2.2,0.3-3.3,0.3h-7.9
		c-1.7,0-3-0.1-2.8-0.3L203.1,349.6z"/>
	<path class="st11" d="M187.1,349.6c1.1-0.2,2.3-0.3,3.4-0.3h7.1c1.7,0,2.9,0.1,2.8,0.3l-0.1,0.1c-1.1,0.2-2.3,0.3-3.4,0.3h-7.2
		c-1.7,0-2.9-0.1-2.7-0.3L187.1,349.6z"/>
	<path class="st11" d="M171.1,349.6c1.2-0.2,2.3-0.3,3.5-0.3h7.2c1.7,0,2.9,0.1,2.7,0.3l-0.1,0.1c-1.1,0.2-2.3,0.3-3.5,0.3h-7.3
		c-1.7,0-2.9-0.1-2.6-0.3L171.1,349.6z"/>
	<path class="st11" d="M155.3,349.6c1.2-0.2,2.4-0.3,3.6-0.3h6.9c1.7,0,2.9,0.1,2.6,0.3l-0.2,0.1c-1.2,0.2-2.4,0.3-3.6,0.3h-7
		c-1.7,0-2.8-0.1-2.5-0.3L155.3,349.6z"/>
	<path class="st11" d="M138.6,349.6c1.2-0.2,2.5-0.3,3.7-0.3h7.8c1.7,0,2.8,0.1,2.5,0.3l-0.2,0.1c-1.2,0.2-2.4,0.3-3.7,0.3h-7.9
		c-1.7,0-2.8-0.1-2.4-0.3L138.6,349.6z"/>
	<path class="st11" d="M97.3,357.8c-0.6,0.2,0.6,0.4,2.6,0.4h13.6c1.5,0,3.1-0.1,4.6-0.4l2.1-0.8c0.5-0.2-0.7-0.4-2.7-0.4h-13.2
		c-1.5,0-3.1,0.1-4.6,0.4L97.3,357.8z"/>
	<path class="st11" d="M121.3,349.6c1.3-0.2,2.5-0.3,3.8-0.3h8.4c1.7,0,2.8,0.1,2.4,0.3l-0.3,0.1c-1.2,0.2-2.5,0.3-3.8,0.3h-8.5
		c-1.7,0-2.8-0.1-2.3-0.3L121.3,349.6z"/>
	<path class="st11" d="M378.8,349.6c-1.3-0.2-2.5-0.3-3.8-0.3h-8.5c-1.7,0-2.8,0.1-2.4,0.3l0.3,0.1c1.2,0.2,2.5,0.3,3.7,0.3h8.7
		c1.7,0,2.8-0.1,2.3-0.3L378.8,349.6z"/>
	<path class="st11" d="M402.7,357.8c0.6,0.2-0.6,0.4-2.6,0.4h-10.3c-1.5,0-3.1-0.1-4.6-0.4L383,357c-0.5-0.2,0.7-0.4,2.6-0.4h10
		c1.5,0,3.1,0.1,4.6,0.4L402.7,357.8z"/>
	<path class="st11" d="M325.6,366.1c0.3,0.2-1,0.4-2.7,0.4H177.2c-1.8,0-3-0.2-2.7-0.4l8.8-7c1-0.3,2.1-0.3,3.1-0.3h127.3
		c1.1-0.1,2.1,0,3.1,0.3L325.6,366.1z"/>
	<path class="st8" d="M273.5,250.9c-1.1,0-2.3,0.1-3.4,0.3c-5.8-12-20.2-17-32.2-11.3c-7.7,3.7-12.9,11.2-13.6,19.8
		c-0.7-0.1-1.5-0.2-2.3-0.2c-7.3,0-13.2,5.9-13.2,13.2c0,7.3,5.9,13.2,13.2,13.2h51.4c9.7,0.3,17.8-7.2,18.1-16.9
		c0.3-9.7-7.2-17.8-16.9-18.1C274.3,250.9,273.9,250.9,273.5,250.9L273.5,250.9z"/>
	<polygon class="st9" points="257.9,265.5 257.9,273.7 242.1,273.7 242.1,265.5 238.6,265.5 238.6,276.9 261.4,276.9 261.4,265.5 	
		"/>
	<polygon class="st9" points="256.8,261.4 250,254.6 243.2,261.4 245.1,263.2 248.6,259.6 248.6,267.9 251.4,267.9 251.4,259.6 
		254.9,263.2 	"/>
	<rect x="181.4" y="296.7" class="st8" width="137.2" height="7"/>
	<rect x="181.4" y="296.7" class="st12" width="67.6" height="7"/>
	<polyline class="st5" points="345,318.6 345,321.1 342.5,321.1 	"/>
	<line class="st13" x1="337.5" y1="321.1" x2="160" y2="321.1"/>
	<polyline class="st5" points="157.5,321.1 155,321.1 155,318.6 	"/>
	<line class="st14" x1="155" y1="313.6" x2="155" y2="215.7"/>
	<polyline class="st5" points="155,213.2 155,210.7 157.5,210.7 	"/>
	<line class="st13" x1="162.5" y1="210.7" x2="340" y2="210.7"/>
	<polyline class="st5" points="342.5,210.7 345,210.7 345,213.2 	"/>
	<line class="st14" x1="345" y1="218.2" x2="345" y2="316.1"/>
	<path class="st15" d="M374.5,250.1h35.6c1.7,0,3,1.3,3,3v54.5c0,1.7-1.3,3-3,3h-35.6c-1.7,0-3-1.3-3-3v-54.5
		C371.5,251.4,372.9,250.1,374.5,250.1z"/>
	<path class="st8" d="M407.8,312.1c0,1.7-1.3,3-3,3h-35.6c-1.7,0-3-1.3-3-3v-54.5c0-1.7,1.3-3,3-3h25l13.5,13.5L407.8,312.1z"/>
	<path class="st9" d="M394.2,263.8c0,2.4,1.9,4.3,4.3,4.3c0,0,0,0,0,0h9.2l-13.5-13.5L394.2,263.8z"/>
	<line class="st5" x1="370.6" y1="274.4" x2="393.9" y2="274.4"/>
	<line class="st5" x1="370.6" y1="278.4" x2="403.4" y2="278.4"/>
	<line class="st5" x1="370.6" y1="282.5" x2="403.4" y2="282.5"/>
	<line class="st5" x1="370.6" y1="286.6" x2="403.4" y2="286.6"/>
	<line class="st5" x1="370.6" y1="290.7" x2="403.4" y2="290.7"/>
	<line class="st5" x1="370.6" y1="294.8" x2="403.4" y2="294.8"/>
	<line class="st5" x1="370.6" y1="298.9" x2="403.4" y2="298.9"/>
	<line class="st5" x1="370.6" y1="302.9" x2="403.4" y2="302.9"/>
	<line class="st5" x1="370.6" y1="307" x2="403.4" y2="307"/>
	<path class="st16" d="M131.6,268.5c0.5,1.8-0.6,3.7-2.4,4.2l-34.9,9.5c-1.8,0.5-3.7-0.6-4.2-2.4l-11.7-43c-0.5-1.8,0.6-3.7,2.4-4.2
		l34.9-9.5c1.8-0.5,3.7,0.6,4.2,2.4L131.6,268.5z"/>
	
		<rect x="85.8" y="230.4" transform="matrix(0.9652 -0.2615 0.2615 0.9652 -61.3764 35.8284)" class="st17" width="36.2" height="36.2"/>
	<path class="st1" d="M118.4,238.5c1.3,4.7-1.5,9.5-6.2,10.7c-4.7,1.3-9.5-1.5-10.7-6.2c-1.3-4.7,1.5-9.5,6.2-10.7
		C112.4,231.1,117.2,233.8,118.4,238.5C118.4,238.5,118.4,238.5,118.4,238.5z"/>
	<polygon class="st4" points="107.3,266.4 126.1,261.3 123.2,250.6 113.9,241.3 	"/>
	<polygon class="st3" points="94.8,240.6 89,262.6 91.2,270.7 117.9,263.5 	"/>
	<path class="st8" d="M96.8,220.6h36.2c1.9,0,3.4,1.5,3.4,3.4v44.6c0,1.9-1.5,3.4-3.4,3.4l0,0H96.8c-1.9,0-3.4-1.5-3.4-3.4l0,0
		v-44.6C93.3,222.2,94.9,220.6,96.8,220.6z"/>
	<rect x="96.8" y="224.1" class="st17" width="36.2" height="36.2"/>
	<path class="st1" d="M131.5,236.3c0,4.8-3.9,8.8-8.7,8.8s-8.8-3.9-8.8-8.7s3.9-8.8,8.7-8.8c0,0,0,0,0,0
		C127.6,227.5,131.5,231.4,131.5,236.3z"/>
	<polygon class="st4" points="113.4,260.2 132.9,260.2 132.9,249.2 126.4,237.8 	"/>
	<polygon class="st3" points="108.2,232.1 96.8,251.8 96.8,260.2 124.4,260.2 	"/>
	<path class="st8" d="M185.5,250l-0.9-8.7c-0.1-1.5-1.5-2.7-3-2.6c-1.5,0.1-2.7,1.5-2.6,3c0,0,0,0.1,0,0.1l0.2,1.9
		c-15.8-10.9-35.4-6.6-36.3-6.4c-1.5,0.4-2.4,1.9-2,3.4c0.4,1.5,1.8,2.4,3.3,2.1c0.2,0,17.8-3.9,31.6,5.4l-2.1,0.2
		c-1.5,0.2-2.6,1.6-2.4,3.1c0.2,1.4,1.3,2.4,2.7,2.5h0.3l8.7-0.9C184.5,252.9,185.6,251.5,185.5,250z"/>
	<path class="st18" d="M337.3,273.9l0.9-8.7c0.2-1.5,1.6-2.6,3.1-2.4c1.5,0.2,2.6,1.5,2.5,3l-0.2,1.9c15.8-10.9,35.4-6.6,36.3-6.4
		c1.5,0.3,2.5,1.8,2.2,3.3s-1.8,2.5-3.3,2.2c0,0-0.1,0-0.1,0c-0.2,0-17.8-3.9-31.6,5.4l2.1,0.2c1.5,0.2,2.6,1.6,2.5,3.1
		c-0.2,1.4-1.3,2.4-2.7,2.5h-0.3l-8.7-0.9C338.3,276.8,337.2,275.4,337.3,273.9C337.3,273.9,337.3,273.9,337.3,273.9z"/>
	<path class="st19" d="M131.1,306.2c0.6-2.2,2.6-3.8,4.9-3.8h36c1.7-0.1,3.1,1.1,3.2,2.7c0,0.4,0,0.7-0.1,1.1l-5.1,22.5
		c-0.6,2.2-2.6,3.8-4.9,3.8h-35.9c-1.7,0.1-3.1-1.1-3.2-2.7c0-0.4,0-0.7,0.1-1.1L131.1,306.2z"/>
	<path class="st1" d="M151.8,307.9c-2.2,0-3.9-1.7-4-3.9s-1.8-3.9-4-3.9h-14.5c-2.2,0-4,1.8-4,4v24.3c0,2.2,1.8,4,4,4h35.9
		c2.2,0,4-1.8,4-4v-16.6c0-2.2-1.8-4-4-4H151.8z"/>
	<path class="st20" d="M337.6,178.7h26.6c3.7,0,6.7,3,6.7,6.7V212c0,3.7-3,6.7-6.7,6.7h-26.6c-3.7,0-6.7-3-6.7-6.7v-26.6
		C330.9,181.7,333.9,178.7,337.6,178.7z"/>
	<path class="st8" d="M343.5,191.6c0-2.8,2-3.9,4.3-2.5l12.3,7.1c2.4,1.4,2.4,3.6,0,5l-12.3,7.1c-2.4,1.4-4.3,0.3-4.3-2.5V191.6z"/>
	<path class="st18" d="M304.4,173.4c-0.2,0-0.4-0.2-0.4-0.4v-2c0-0.3,0.2-0.5,0.4-0.5c0,0,0,0,0,0h1v-1.7h-3.1v-23h3.1V144h-1
		c-0.3,0-0.5-0.2-0.5-0.5c0,0,0,0,0,0v-2c0-0.3,0.2-0.5,0.4-0.5c0,0,0,0,0,0h1v-1.3h-59.2v1.3h1c0.3,0,0.5,0.2,0.5,0.5l0,0v2
		c0,0.3-0.2,0.5-0.5,0.5l0,0h-1v1.7h3.1v23h-3.1v1.7h1c0.3,0,0.5,0.2,0.5,0.5l0,0v2c0,0.3-0.2,0.5-0.5,0.5l0,0h-1v1.3h59.1v-1.3
		L304.4,173.4z M255.2,173c0,0.3-0.2,0.5-0.5,0.5h-2.1c-0.3,0-0.5-0.2-0.5-0.5c0,0,0,0,0,0v-2c0-0.3,0.2-0.5,0.4-0.5c0,0,0,0,0,0
		h2.1c0.3,0,0.5,0.2,0.5,0.5V173z M255.2,143.6c0,0.3-0.2,0.5-0.5,0.5h-2.1c-0.3,0-0.5-0.2-0.5-0.5c0,0,0,0,0,0v-2
		c0-0.3,0.2-0.5,0.4-0.5c0,0,0,0,0,0h2.1c0.3,0,0.5,0.2,0.5,0.5V143.6z M262.6,173c0,0.3-0.2,0.5-0.5,0.5l0,0h-2
		c-0.3,0-0.5-0.2-0.5-0.5v-2c0-0.3,0.2-0.5,0.5-0.5h2c0.3,0,0.5,0.2,0.5,0.5l0,0V173z M262.6,143.6c0,0.3-0.2,0.5-0.5,0.5l0,0h-2
		c-0.3,0-0.5-0.2-0.5-0.5v-2c0-0.3,0.2-0.5,0.5-0.5h2c0.3,0,0.5,0.2,0.5,0.5l0,0V143.6z M270,173c0,0.3-0.2,0.5-0.5,0.5l0,0h-2
		c-0.3,0-0.5-0.1-0.5-0.4c0,0,0,0,0-0.1v-2c0-0.3,0.2-0.5,0.5-0.5l0,0h2c0.3,0,0.5,0.2,0.5,0.5l0,0L270,173z M270,143.6
		c0,0.3-0.2,0.5-0.5,0.5l0,0h-2c-0.3,0-0.5-0.2-0.5-0.5l0,0v-2c0-0.3,0.2-0.5,0.5-0.5l0,0h2c0.3,0,0.5,0.2,0.5,0.5l0,0V143.6z
		 M277.4,173c0,0.3-0.2,0.5-0.5,0.5l0,0h-2c-0.3,0-0.5-0.2-0.5-0.5l0,0v-2c0-0.3,0.2-0.5,0.5-0.5l0,0h2c0.3,0,0.5,0.2,0.5,0.5l0,0
		V173z M277.4,143.6c0,0.3-0.2,0.5-0.5,0.5l0,0h-2c-0.3,0-0.5-0.2-0.5-0.5l0,0v-2c0-0.3,0.2-0.5,0.5-0.5l0,0h2
		c0.3,0,0.5,0.2,0.5,0.5l0,0V143.6z M284.8,173c0,0.3-0.2,0.5-0.5,0.5h-2c-0.3,0-0.5-0.2-0.5-0.5v-2c0-0.3,0.2-0.5,0.5-0.5h2
		c0.3,0,0.5,0.2,0.5,0.5V173z M284.8,143.6c0,0.3-0.2,0.5-0.5,0.5h-2c-0.3,0-0.5-0.2-0.5-0.5v-2c0-0.3,0.2-0.5,0.5-0.5h2
		c0.3,0,0.5,0.2,0.5,0.5V143.6z M292.2,173c0,0.3-0.2,0.5-0.5,0.5l0,0h-2c-0.3,0-0.5-0.2-0.5-0.5l0,0v-2c0-0.3,0.2-0.5,0.5-0.5l0,0
		h2c0.3,0,0.5,0.2,0.5,0.5l0,0V173z M292.2,143.6c0,0.3-0.2,0.5-0.5,0.5l0,0h-2c-0.3,0-0.5-0.2-0.5-0.5l0,0v-2
		c0-0.3,0.2-0.5,0.5-0.5l0,0h2c0.3,0,0.5,0.2,0.5,0.5l0,0V143.6z M299.6,173c0,0.3-0.2,0.5-0.5,0.5l0,0h-2c-0.3,0-0.5-0.2-0.5-0.5
		l0,0v-2c0-0.3,0.2-0.5,0.5-0.5l0,0h2c0.3,0,0.5,0.2,0.5,0.5l0,0V173z M299.6,143.6c0,0.3-0.2,0.5-0.5,0.5l0,0h-2
		c-0.3,0-0.5-0.2-0.5-0.5l0,0v-2c0-0.3,0.2-0.5,0.5-0.5l0,0h2c0.3,0,0.5,0.2,0.5,0.5l0,0V143.6z"/>
	<rect x="254.6" y="145.7" class="st8" width="42.6" height="23"/>
	<path class="st20" d="M269.9,152.1c0-2,1.4-2.8,3.1-1.8l8.9,5.1c1.7,1,1.7,2.6,0,3.6l-8.9,5.1c-1.7,1-3.1,0.2-3.1-1.8V152.1z"/>
	<path class="st15" d="M149.3,151.5h65.7c1.7,0,3,1.3,3,3v42.7c0,1.7-1.3,3-3,3h-65.7c-1.7,0-3-1.3-3-3v-42.7
		C146.3,152.8,147.6,151.5,149.3,151.5z"/>
	<path class="st8" d="M155,157.2h65.7c1.7,0,3,1.3,3,3v42.7c0,1.7-1.3,3-3,3H155c-1.7,0-3-1.3-3-3v-42.7
		C152,158.6,153.4,157.2,155,157.2z"/>
	<path class="st20" d="M192.1,170.5c-3-4.4-7.9-7-13.2-7v15.9L192.1,170.5z"/>
	<path class="st9" d="M194,190.8c3.3-5.3,3.1-12.1-0.4-17.2l-13.2,8.9L194,190.8z"/>
	<path class="st3" d="M177.5,183.7c0,0-5.7,6.3-10.7,11.8c6.5,5.9,16.5,5.4,22.4-1.1c0.7-0.7,1.3-1.6,1.8-2.4L177.5,183.7z"/>
	<path class="st1" d="M174.7,164.6c-8.8,0-15.9,7.1-16,15.8c0,4.5,1.9,8.8,5.2,11.8l10.7-11.8L174.7,164.6z"/>
	<line class="st5" x1="204.8" y1="172.3" x2="217" y2="172.3"/>
	<line class="st5" x1="204.8" y1="176.3" x2="217" y2="176.3"/>
	<line class="st5" x1="204.8" y1="180.3" x2="217" y2="180.3"/>
	<line class="st5" x1="204.8" y1="184.3" x2="217" y2="184.3"/>
	<line class="st5" x1="204.8" y1="188.3" x2="217" y2="188.3"/>
	<path class="st21" d="M237.1,177.4h-2.3V175c0-0.7-0.6-1.3-1.4-1.3c-0.7,0-1.3,0.6-1.3,1.3v2.3h-2.3c-0.7,0-1.3,0.6-1.3,1.4
		c0,0.7,0.6,1.3,1.3,1.3h2.3v2.3c0,0.7,0.6,1.4,1.3,1.4c0.7,0,1.4-0.6,1.4-1.3c0,0,0,0,0,0V180h2.3c0.7,0,1.4-0.6,1.4-1.3
		C238.5,177.9,237.9,177.3,237.1,177.4C237.1,177.3,237.1,177.3,237.1,177.4L237.1,177.4z"/>
	<path class="st22" d="M453.4,329.8H451v-2.3c0-0.7-0.6-1.4-1.4-1.4s-1.4,0.6-1.4,1.4v2.3H446c-0.7,0-1.4,0.6-1.4,1.4
		s0.6,1.4,1.4,1.4h2.3v2.3c0,0.7,0.6,1.4,1.4,1.4s1.4-0.6,1.4-1.4v-2.3h2.3c0.7,0,1.4-0.6,1.4-1.4S454.1,329.8,453.4,329.8
		L453.4,329.8L453.4,329.8z"/>
	<path class="st23" d="M149,137.4l-1.6-1.6l1.6-1.6c0.6-0.5,0.6-1.3,0.1-1.9c-0.5-0.6-1.3-0.6-1.9-0.1c0,0-0.1,0.1-0.1,0.1l-1.6,1.6
		l-1.6-1.6c-0.6-0.5-1.4-0.4-1.9,0.1c-0.4,0.5-0.4,1.3,0,1.8l1.6,1.6l-1.6,1.6c-0.5,0.5-0.5,1.4,0,1.9c0.5,0.5,1.4,0.5,1.9,0
		c0,0,0,0,0,0l1.6-1.6l1.6,1.6c0.5,0.5,1.4,0.5,1.9,0c0,0,0,0,0,0C149.5,138.8,149.5,138,149,137.4z"/>
	<path class="st24" d="M328.5,163.5c0,2.5-2,4.6-4.5,4.6c-2.5,0-4.6-2-4.6-4.5c0-2.5,2-4.6,4.5-4.6c0,0,0,0,0.1,0
		C326.5,159,328.5,161,328.5,163.5z"/>
	<path class="st25" d="M454.3,252.6c0,2.5-2.1,4.5-4.6,4.5s-4.5-2.1-4.5-4.6c0-2.5,2-4.5,4.5-4.5C452.2,248,454.3,250,454.3,252.6
		C454.3,252.6,454.3,252.6,454.3,252.6z"/>
	<polygon class="st26" points="319.8,121.5 324.4,123.8 320,126.7 	"/>
	<polygon class="st26" points="41.2,319.1 45.8,321.5 41.5,324.3 	"/>
	<path class="st24" d="M76.5,169.5c4.1,0,4.1,3.9,8.3,3.9s4.1-3.9,8.3-3.9s4.1,3.9,8.3,3.9s4.1-3.9,8.3-3.9s4.1,3.9,8.3,3.9
		s4.1-3.9,8.3-3.9"/>
	<path class="st27" d="M404.6,196.8c4.1,0,4.1,3.9,8.3,3.9s4.1-3.9,8.3-3.9s4.1,3.9,8.3,3.9s4.1-3.9,8.3-3.9s4.1,3.9,8.3,3.9
		s4.1-3.9,8.3-3.9"/>
	<path class="st25" d="M53.5,274.9c4.1,0,4.1,3.9,8.3,3.9s4.1-3.9,8.3-3.9s4.1,3.9,8.3,3.9s4.1-3.9,8.3-3.9s4.1,3.9,8.3,3.9
		s4.1-3.9,8.3-3.9"/>
</g>
<text transform="matrix(1 0 0 1 215.1849 227.4998)" class="st28 st29 st30">Click Button To Upload</text>
</svg>
